<?xml version="1.0" encoding="UTF-8" standalone="no"?>
<!DOCTYPE svg PUBLIC "-//W3C//DTD SVG 1.1//EN"
 "http://www.w3.org/Graphics/SVG/1.1/DTD/svg11.dtd">
<!-- Generated by graphviz version 2.43.20190912.0211 (20190912.0211)
 -->
<!-- Title: compiler_explorer Pages: 1 -->
<svg width="1681pt" height="677pt"
 viewBox="0.00 0.00 1681.00 677.00" xmlns="http://www.w3.org/2000/svg" xmlns:xlink="http://www.w3.org/1999/xlink">
<g id="graph0" class="graph" transform="scale(1 1) rotate(0) translate(4 673)">
<title>compiler_explorer</title>
<polygon fill="white" stroke="transparent" points="-4,4 -4,-673 1677,-673 1677,4 -4,4"/>
<g id="clust1" class="cluster">
<title>cluster_ce_nodes_ms</title>
<polygon fill="#db99dd" stroke="#db99dd" points="1166,-167 1166,-242 1430,-242 1430,-167 1166,-167"/>
<text text-anchor="middle" x="1298" y="-226.8" font-family="Times,serif" font-size="14.00">www.godbolt.ms</text>
</g>
<g id="clust2" class="cluster">
<title>cluster_ce_nodes</title>
<polygon fill="#99dd99" stroke="#99dd99" points="867,-159 867,-396 1147,-396 1147,-159 867,-159"/>
<text text-anchor="middle" x="1007" y="-380.8" font-family="Times,serif" font-size="14.00">Production</text>
</g>
<g id="clust3" class="cluster">
<title>cluster_ce_nodes_linux</title>
<polygon fill="#ad99dd" stroke="#ad99dd" points="875,-290 875,-365 1139,-365 1139,-290 875,-290"/>
<text text-anchor="middle" x="1007" y="-349.8" font-family="Times,serif" font-size="14.00">Linux</text>
</g>
<g id="clust4" class="cluster">
<title>cluster_ce_nodes_win</title>
<polygon fill="#cd99dd" stroke="#cd99dd" points="967,-167 967,-242 1048,-242 1048,-167 967,-167"/>
<text text-anchor="middle" x="1007.5" y="-226.8" font-family="Times,serif" font-size="14.00">Windows</text>
</g>
<g id="clust5" class="cluster">
<title>cluster_ce_nodes_gpu</title>
<polygon fill="#74c974" stroke="#74c974" points="1069,-167 1069,-242 1139,-242 1139,-167 1069,-167"/>
<text text-anchor="middle" x="1104" y="-226.8" font-family="Times,serif" font-size="14.00">GPU</text>
</g>
<g id="clust6" class="cluster">
<title>cluster_staging_nodes</title>
<polygon fill="#99dddd" stroke="#99dddd" points="603,-290 603,-365 675,-365 675,-290 603,-290"/>
<text text-anchor="middle" x="639" y="-349.8" font-family="Times,serif" font-size="14.00">Staging</text>
</g>
<g id="clust7" class="cluster">
<title>cluster_lambda</title>
<polygon fill="#44aa88" stroke="#44aa88" points="284,-415 284,-490 494,-490 494,-415 284,-415"/>
<text text-anchor="middle" x="389" y="-474.8" font-family="Times,serif" font-size="14.00">Lambda</text>
</g>
<g id="clust8" class="cluster">
<title>cluster_gh_actions</title>
<polygon fill="#7799ee" stroke="#7799ee" points="8,-65 8,-142 318,-142 318,-65 8,-65"/>
<text text-anchor="middle" x="163" y="-126.8" font-family="Times,serif" font-size="14.00">Actions Runners</text>
</g>
<!-- outside -->
<g id="node1" class="node">
<title>outside</title>
<defs>
<linearGradient id="l_0" gradientUnits="userSpaceOnUse" x1="509.49" y1="-651" x2="640.51" y2="-651" >
<stop offset="0" style="stop-color:#dddddd;stop-opacity:1.;"/>
<stop offset="1" style="stop-color:#aaaaaa;stop-opacity:1.;"/>
</linearGradient>
</defs>
<polygon fill="url(#l_0)" stroke="#dddddd" points="640.51,-669 536.3,-669 509.49,-633 613.7,-633 640.51,-669"/>
<text text-anchor="middle" x="575" y="-647.3" font-family="Times,serif" font-size="14.00">outside</text>
</g>
<!-- cloudfront -->
<g id="node2" class="node">
<title>cloudfront</title>
<defs>
<linearGradient id="l_1" gradientUnits="userSpaceOnUse" x1="516.51" y1="-564" x2="633.49" y2="-564" >
<stop offset="0" style="stop-color:#dddddd;stop-opacity:1.;"/>
<stop offset="1" style="stop-color:#aaaaaa;stop-opacity:1.;"/>
</linearGradient>
</defs>
<ellipse fill="url(#l_1)" stroke="#dddddd" cx="575" cy="-564" rx="58.49" ry="18"/>
<text text-anchor="middle" x="575" y="-560.3" font-family="Times,serif" font-size="14.00">cloudfront</text>
</g>
<!-- outside&#45;&gt;cloudfront -->
<g id="edge3" class="edge">
<title>outside&#45;&gt;cloudfront</title>
<path fill="none" stroke="black" d="M575,-622.73C575,-613.06 575,-602.17 575,-592.48"/>
<polygon fill="black" stroke="black" points="571.5,-622.8 575,-632.8 578.5,-622.8 571.5,-622.8"/>
<polygon fill="black" stroke="black" points="578.5,-592.18 575,-582.18 571.5,-592.18 578.5,-592.18"/>
<text text-anchor="middle" x="594" y="-603.8" font-family="Times,serif" font-size="14.00">https</text>
</g>
<!-- alb -->
<g id="node4" class="node">
<title>alb</title>
<defs>
<linearGradient id="l_2" gradientUnits="userSpaceOnUse" x1="537.5" y1="-441" x2="740.5" y2="-441" >
<stop offset="0" style="stop-color:#dddddd;stop-opacity:1.;"/>
<stop offset="1" style="stop-color:#aaaaaa;stop-opacity:1.;"/>
</linearGradient>
</defs>
<polygon fill="url(#l_2)" stroke="#dddddd" points="740.5,-459 537.5,-459 537.5,-423 740.5,-423 740.5,-459"/>
<text text-anchor="middle" x="639" y="-437.3" font-family="Times,serif" font-size="14.00">Application Load Balancer</text>
</g>
<!-- cloudfront&#45;&gt;alb -->
<g id="edge4" class="edge">
<title>cloudfront&#45;&gt;alb</title>
<path fill="none" stroke="black" d="M588.7,-537.1C599.47,-516.74 614.39,-488.52 625.19,-468.12"/>
<polygon fill="black" stroke="black" points="585.48,-535.7 583.9,-546.18 591.67,-538.97 585.48,-535.7"/>
<polygon fill="black" stroke="black" points="628.39,-469.55 629.97,-459.07 622.2,-466.27 628.39,-469.55"/>
<text text-anchor="middle" x="688" y="-516.8" font-family="Times,serif" font-size="14.00">dynamic content</text>
<text text-anchor="middle" x="688" y="-501.8" font-family="Times,serif" font-size="14.00">compiler&#45;explorer.com</text>
</g>
<!-- gh_actions -->
<g id="node14" class="node">
<title>gh_actions</title>
<defs>
<linearGradient id="l_3" gradientUnits="userSpaceOnUse" x1="291.5" y1="-441" x2="388.5" y2="-441" >
<stop offset="0" style="stop-color:#dddddd;stop-opacity:1.;"/>
<stop offset="1" style="stop-color:#aaaaaa;stop-opacity:1.;"/>
</linearGradient>
</defs>
<polygon fill="url(#l_3)" stroke="#dddddd" points="388.5,-459 291.5,-459 291.5,-423 388.5,-423 388.5,-459"/>
<text text-anchor="middle" x="340" y="-437.3" font-family="Times,serif" font-size="14.00">GH Actions</text>
</g>
<!-- cloudfront&#45;&gt;gh_actions -->
<g id="edge7" class="edge">
<title>cloudfront&#45;&gt;gh_actions</title>
<path fill="none" stroke="black" d="M509.24,-556.53C481,-551.64 448.48,-543.06 422,-528 395.6,-512.99 372.45,-486.8 357.54,-467.26"/>
<polygon fill="black" stroke="black" points="509,-560.03 519.43,-558.17 510.12,-553.12 509,-560.03"/>
<polygon fill="black" stroke="black" points="360.24,-465.03 351.47,-459.08 354.61,-469.19 360.24,-465.03"/>
<text text-anchor="middle" x="462.5" y="-509.3" font-family="Times,serif" font-size="14.00">github.com</text>
</g>
<!-- lambda_stats -->
<g id="node15" class="node">
<title>lambda_stats</title>
<defs>
<linearGradient id="l_4" gradientUnits="userSpaceOnUse" x1="432" y1="-441" x2="486" y2="-441" >
<stop offset="0" style="stop-color:#dddddd;stop-opacity:1.;"/>
<stop offset="1" style="stop-color:#aaaaaa;stop-opacity:1.;"/>
</linearGradient>
</defs>
<polygon fill="url(#l_4)" stroke="#dddddd" points="486,-459 432,-459 432,-423 486,-423 486,-459"/>
<text text-anchor="middle" x="459" y="-437.3" font-family="Times,serif" font-size="14.00">Stats</text>
</g>
<!-- cloudfront&#45;&gt;lambda_stats -->
<g id="edge6" class="edge">
<title>cloudfront&#45;&gt;lambda_stats</title>
<path fill="none" stroke="black" d="M551.66,-538.65C531.5,-517.63 502.53,-487.4 482.36,-466.37"/>
<polygon fill="black" stroke="black" points="549.42,-541.38 558.87,-546.18 554.48,-536.53 549.42,-541.38"/>
<polygon fill="black" stroke="black" points="484.81,-463.87 475.37,-459.07 479.76,-468.71 484.81,-463.87"/>
<text text-anchor="middle" x="558" y="-509.3" font-family="Times,serif" font-size="14.00">stats</text>
</g>
<!-- s3 -->
<g id="node21" class="node">
<title>s3</title>
<defs>
<linearGradient id="l_5" gradientUnits="userSpaceOnUse" x1="981" y1="-20" x2="1035" y2="-20" >
<stop offset="0" style="stop-color:#dddddd;stop-opacity:1.;"/>
<stop offset="1" style="stop-color:#aaaaaa;stop-opacity:1.;"/>
</linearGradient>
</defs>
<polygon fill="url(#l_5)" stroke="#dddddd" points="1035,-36 1032,-40 1011,-40 1008,-36 981,-36 981,0 1035,0 1035,-36"/>
<text text-anchor="middle" x="1008" y="-14.3" font-family="Times,serif" font-size="14.00">s3</text>
</g>
<!-- cloudfront&#45;&gt;s3 -->
<g id="edge5" class="edge">
<title>cloudfront&#45;&gt;s3</title>
<path fill="none" stroke="black" d="M643.45,-561.91C868.91,-557.44 1574,-535.93 1574,-442 1574,-442 1574,-442 1574,-91 1574,-37.58 1172.13,-23.07 1045.64,-19.82"/>
<polygon fill="black" stroke="black" points="643.33,-558.42 633.39,-562.11 643.46,-565.41 643.33,-558.42"/>
<polygon fill="black" stroke="black" points="1045.38,-16.31 1035.3,-19.56 1045.21,-23.31 1045.38,-16.31"/>
<text text-anchor="middle" x="1623.5" y="-268.8" font-family="Times,serif" font-size="14.00">static content</text>
<text text-anchor="middle" x="1623.5" y="-253.8" font-family="Times,serif" font-size="14.00">ce&#45;cdn.net</text>
</g>
<!-- sqs -->
<g id="node3" class="node">
<title>sqs</title>
<defs>
<linearGradient id="l_6" gradientUnits="userSpaceOnUse" x1="265" y1="-316" x2="319" y2="-316" >
<stop offset="0" style="stop-color:#dddddd;stop-opacity:1.;"/>
<stop offset="1" style="stop-color:#aaaaaa;stop-opacity:1.;"/>
</linearGradient>
</defs>
<ellipse fill="url(#l_6)" stroke="#dddddd" cx="292" cy="-316" rx="27" ry="18"/>
<text text-anchor="middle" x="292" y="-312.3" font-family="Times,serif" font-size="14.00">sqs</text>
</g>
<!-- action_runner_1 -->
<g id="node17" class="node">
<title>action_runner_1</title>
<defs>
<linearGradient id="l_7" gradientUnits="userSpaceOnUse" x1="128.5" y1="-92" x2="197.5" y2="-92" >
<stop offset="0" style="stop-color:#dddddd;stop-opacity:1.;"/>
<stop offset="1" style="stop-color:#aaaaaa;stop-opacity:1.;"/>
</linearGradient>
</defs>
<polygon fill="url(#l_7)" stroke="#dddddd" points="197.5,-111 128.5,-111 128.5,-73 197.5,-73 197.5,-111"/>
<text text-anchor="middle" x="163" y="-95.8" font-family="Times,serif" font-size="14.00">Runner</text>
<text text-anchor="middle" x="163" y="-80.8" font-family="Times,serif" font-size="14.00">EC2</text>
</g>
<!-- sqs&#45;&gt;action_runner_1 -->
<g id="edge2" class="edge">
<title>sqs&#45;&gt;action_runner_1</title>
<path fill="none" stroke="black" d="M277.6,-290.21C258.14,-256.74 222.89,-196.07 196.6,-150.83"/>
<polygon fill="black" stroke="black" points="274.67,-292.15 282.72,-299.03 280.72,-288.63 274.67,-292.15"/>
<polygon fill="black" stroke="black" points="199.52,-148.89 191.47,-142 193.47,-152.4 199.52,-148.89"/>
</g>
<!-- ce_node_1 -->
<g id="node9" class="node">
<title>ce_node_1</title>
<defs>
<linearGradient id="l_8" gradientUnits="userSpaceOnUse" x1="980" y1="-316" x2="1034" y2="-316" >
<stop offset="0" style="stop-color:#dddddd;stop-opacity:1.;"/>
<stop offset="1" style="stop-color:#aaaaaa;stop-opacity:1.;"/>
</linearGradient>
</defs>
<polygon fill="url(#l_8)" stroke="#dddddd" points="1034,-334 980,-334 980,-298 1034,-298 1034,-334"/>
<text text-anchor="middle" x="1007" y="-312.3" font-family="Times,serif" font-size="14.00">EC2</text>
</g>
<!-- alb&#45;&gt;ce_node_1 -->
<g id="edge8" class="edge">
<title>alb&#45;&gt;ce_node_1</title>
<path fill="none" stroke="black" d="M751.28,-434.72C823.35,-429.6 910.57,-419.72 950.03,-400.96"/>
<polygon fill="black" stroke="black" points="750.61,-431.25 740.87,-435.43 751.09,-438.24 750.61,-431.25"/>
<polygon fill="black" stroke="black" points="951.95,-403.9 959,-396 948.56,-397.78 951.95,-403.9"/>
</g>
<!-- staging_node_1 -->
<g id="node13" class="node">
<title>staging_node_1</title>
<defs>
<linearGradient id="l_9" gradientUnits="userSpaceOnUse" x1="612" y1="-316" x2="666" y2="-316" >
<stop offset="0" style="stop-color:#dddddd;stop-opacity:1.;"/>
<stop offset="1" style="stop-color:#aaaaaa;stop-opacity:1.;"/>
</linearGradient>
</defs>
<polygon fill="url(#l_9)" stroke="#dddddd" points="666,-334 612,-334 612,-298 666,-298 666,-334"/>
<text text-anchor="middle" x="639" y="-312.3" font-family="Times,serif" font-size="14.00">EC2</text>
</g>
<!-- alb&#45;&gt;staging_node_1 -->
<g id="edge9" class="edge">
<title>alb&#45;&gt;staging_node_1</title>
<path fill="none" stroke="black" d="M639,-412.7C639,-401.64 639,-388.41 639,-375.37"/>
<polygon fill="black" stroke="black" points="635.5,-412.9 639,-422.9 642.5,-412.9 635.5,-412.9"/>
<polygon fill="black" stroke="black" points="642.5,-375 639,-365 635.5,-375 642.5,-375"/>
</g>
<!-- ms_node_2 -->
<g id="node5" class="node">
<title>ms_node_2</title>
<defs>
<linearGradient id="l_10" gradientUnits="userSpaceOnUse" x1="1368" y1="-193" x2="1422" y2="-193" >
<stop offset="0" style="stop-color:#dddddd;stop-opacity:1.;"/>
<stop offset="1" style="stop-color:#aaaaaa;stop-opacity:1.;"/>
</linearGradient>
</defs>
<polygon fill="url(#l_10)" stroke="#dddddd" points="1422,-211 1368,-211 1368,-175 1422,-175 1422,-211"/>
<text text-anchor="middle" x="1395" y="-189.3" font-family="Times,serif" font-size="14.00">k8s</text>
</g>
<!-- ms_node_1 -->
<g id="node6" class="node">
<title>ms_node_1</title>
<defs>
<linearGradient id="l_11" gradientUnits="userSpaceOnUse" x1="1271" y1="-193" x2="1325" y2="-193" >
<stop offset="0" style="stop-color:#dddddd;stop-opacity:1.;"/>
<stop offset="1" style="stop-color:#aaaaaa;stop-opacity:1.;"/>
</linearGradient>
</defs>
<polygon fill="url(#l_11)" stroke="#dddddd" points="1325,-211 1271,-211 1271,-175 1325,-175 1325,-211"/>
<text text-anchor="middle" x="1298" y="-189.3" font-family="Times,serif" font-size="14.00">k8s</text>
</g>
<!-- ms_node_3 -->
<g id="node7" class="node">
<title>ms_node_3</title>
<defs>
<linearGradient id="l_12" gradientUnits="userSpaceOnUse" x1="1174" y1="-193" x2="1228" y2="-193" >
<stop offset="0" style="stop-color:#dddddd;stop-opacity:1.;"/>
<stop offset="1" style="stop-color:#aaaaaa;stop-opacity:1.;"/>
</linearGradient>
</defs>
<polygon fill="url(#l_12)" stroke="#dddddd" points="1228,-211 1174,-211 1174,-175 1228,-175 1228,-211"/>
<text text-anchor="middle" x="1201" y="-189.3" font-family="Times,serif" font-size="14.00">k8s</text>
</g>
<!-- ce_node_2 -->
<g id="node8" class="node">
<title>ce_node_2</title>
<defs>
<linearGradient id="l_13" gradientUnits="userSpaceOnUse" x1="1077" y1="-316" x2="1131" y2="-316" >
<stop offset="0" style="stop-color:#dddddd;stop-opacity:1.;"/>
<stop offset="1" style="stop-color:#aaaaaa;stop-opacity:1.;"/>
</linearGradient>
</defs>
<polygon fill="url(#l_13)" stroke="#dddddd" points="1131,-334 1077,-334 1077,-298 1131,-298 1131,-334"/>
<text text-anchor="middle" x="1104" y="-312.3" font-family="Times,serif" font-size="14.00">EC2</text>
</g>
<!-- ce_node_1&#45;&gt;ms_node_1 -->
<g id="edge20" class="edge">
<title>ce_node_1&#45;&gt;ms_node_1</title>
<path fill="none" stroke="black" d="M1157.2,-270.54C1182.72,-268.08 1207.86,-264.04 1241.13,-246.8"/>
<polygon fill="black" stroke="black" points="1156.64,-267.08 1147,-271.47 1157.27,-274.05 1156.64,-267.08"/>
<polygon fill="black" stroke="black" points="1242.87,-249.84 1250,-242 1239.54,-243.68 1242.87,-249.84"/>
</g>
<!-- ce_node_1_win -->
<g id="node11" class="node">
<title>ce_node_1_win</title>
<defs>
<linearGradient id="l_14" gradientUnits="userSpaceOnUse" x1="980" y1="-193" x2="1034" y2="-193" >
<stop offset="0" style="stop-color:#dddddd;stop-opacity:1.;"/>
<stop offset="1" style="stop-color:#aaaaaa;stop-opacity:1.;"/>
</linearGradient>
</defs>
<polygon fill="url(#l_14)" stroke="#dddddd" points="1034,-211 980,-211 980,-175 1034,-175 1034,-211"/>
<text text-anchor="middle" x="1007" y="-189.3" font-family="Times,serif" font-size="14.00">EC2</text>
</g>
<!-- ce_node_1&#45;&gt;ce_node_1_win -->
<g id="edge22" class="edge">
<title>ce_node_1&#45;&gt;ce_node_1_win</title>
<path fill="none" stroke="black" d="M1007,-287.62C1007,-277.09 1007,-264.63 1007,-252.29"/>
<polygon fill="black" stroke="black" points="1003.5,-280 1007,-290 1010.5,-280 1003.5,-280"/>
<polygon fill="black" stroke="black" points="1010.5,-252 1007,-242 1003.5,-252 1010.5,-252"/>
</g>
<!-- ce_node_1_gpu -->
<g id="node12" class="node">
<title>ce_node_1_gpu</title>
<defs>
<linearGradient id="l_15" gradientUnits="userSpaceOnUse" x1="1077" y1="-193" x2="1131" y2="-193" >
<stop offset="0" style="stop-color:#dddddd;stop-opacity:1.;"/>
<stop offset="1" style="stop-color:#aaaaaa;stop-opacity:1.;"/>
</linearGradient>
</defs>
<polygon fill="url(#l_15)" stroke="#dddddd" points="1131,-211 1077,-211 1077,-175 1131,-175 1131,-211"/>
<text text-anchor="middle" x="1104" y="-189.3" font-family="Times,serif" font-size="14.00">EC2</text>
</g>
<!-- ce_node_1&#45;&gt;ce_node_1_gpu -->
<g id="edge23" class="edge">
<title>ce_node_1&#45;&gt;ce_node_1_gpu</title>
<path fill="none" stroke="black" d="M1027.19,-289.81C1037.48,-276.98 1050.38,-260.88 1062.66,-245.57"/>
<polygon fill="black" stroke="black" points="1034.81,-283.19 1026.69,-290 1037.28,-289.74 1034.81,-283.19"/>
<polygon fill="black" stroke="black" points="1065.48,-247.65 1069,-237.66 1060.02,-243.27 1065.48,-247.65"/>
</g>
<!-- admin -->
<g id="node19" class="node">
<title>admin</title>
<defs>
<linearGradient id="l_16" gradientUnits="userSpaceOnUse" x1="788.5" y1="-193" x2="849.5" y2="-193" >
<stop offset="0" style="stop-color:#ddddff;stop-opacity:1.;"/>
<stop offset="1" style="stop-color:#aaaacc;stop-opacity:1.;"/>
</linearGradient>
</defs>
<polygon fill="url(#l_16)" stroke="#ddddff" points="849.5,-212 788.5,-212 788.5,-174 849.5,-174 849.5,-212"/>
<text text-anchor="middle" x="819" y="-196.8" font-family="Times,serif" font-size="14.00">admin</text>
<text text-anchor="middle" x="819" y="-181.8" font-family="Times,serif" font-size="14.00">EC2</text>
</g>
<!-- ce_node_1&#45;&gt;admin -->
<g id="edge17" class="edge">
<title>ce_node_1&#45;&gt;admin</title>
<path fill="none" stroke="black" d="M859.8,-260.98C848.03,-248.45 838.65,-233.79 831.87,-221.39"/>
<polygon fill="black" stroke="black" points="857.42,-263.55 867,-268.08 862.34,-258.57 857.42,-263.55"/>
<polygon fill="black" stroke="black" points="834.83,-219.5 827.11,-212.25 828.63,-222.74 834.83,-219.5"/>
</g>
<!-- efs -->
<g id="node20" class="node">
<title>efs</title>
<defs>
<linearGradient id="l_17" gradientUnits="userSpaceOnUse" x1="794" y1="-94" x2="848" y2="-94" >
<stop offset="0" style="stop-color:#dddddd;stop-opacity:1.;"/>
<stop offset="1" style="stop-color:#aaaaaa;stop-opacity:1.;"/>
</linearGradient>
</defs>
<polygon fill="url(#l_17)" stroke="#dddddd" points="848,-110 845,-114 824,-114 821,-110 794,-110 794,-74 848,-74 848,-110"/>
<text text-anchor="middle" x="821" y="-88.3" font-family="Times,serif" font-size="14.00">efs</text>
</g>
<!-- ce_node_1&#45;&gt;efs -->
<g id="edge18" class="edge">
<title>ce_node_1&#45;&gt;efs</title>
<path fill="none" stroke="black" d="M869.62,-151.03C859.09,-138.46 849.55,-127.07 841.76,-117.78"/>
<polygon fill="black" stroke="black" points="867.2,-153.59 876.3,-159 872.56,-149.09 867.2,-153.59"/>
<polygon fill="black" stroke="black" points="844.44,-115.53 835.33,-110.11 839.07,-120.02 844.44,-115.53"/>
</g>
<!-- ce_node_1&#45;&gt;s3 -->
<g id="edge19" class="edge">
<title>ce_node_1&#45;&gt;s3</title>
<path fill="none" stroke="black" d="M1157.07,-281.81C1262.19,-281.28 1399.83,-288.85 1440,-242 1558.51,-103.78 1170.57,-40.16 1045.53,-23.56"/>
<polygon fill="black" stroke="black" points="1156.97,-278.31 1147,-281.88 1157.02,-285.31 1156.97,-278.31"/>
<polygon fill="black" stroke="black" points="1045.66,-20.05 1035.29,-22.23 1044.76,-26.99 1045.66,-20.05"/>
</g>
<!-- dynamodb -->
<g id="node22" class="node">
<title>dynamodb</title>
<defs>
<linearGradient id="l_18" gradientUnits="userSpaceOnUse" x1="546.5" y1="-92" x2="637.5" y2="-92" >
<stop offset="0" style="stop-color:#dddddd;stop-opacity:1.;"/>
<stop offset="1" style="stop-color:#aaaaaa;stop-opacity:1.;"/>
</linearGradient>
</defs>
<path fill="url(#l_18)" stroke="#dddddd" d="M637.5,-106.73C637.5,-108.53 617.11,-110 592,-110 566.89,-110 546.5,-108.53 546.5,-106.73 546.5,-106.73 546.5,-77.27 546.5,-77.27 546.5,-75.47 566.89,-74 592,-74 617.11,-74 637.5,-75.47 637.5,-77.27 637.5,-77.27 637.5,-106.73 637.5,-106.73"/>
<path fill="none" stroke="#dddddd" d="M637.5,-106.73C637.5,-104.92 617.11,-103.45 592,-103.45 566.89,-103.45 546.5,-104.92 546.5,-106.73"/>
<text text-anchor="middle" x="592" y="-88.3" font-family="Times,serif" font-size="14.00">dynamodb</text>
</g>
<!-- ce_node_1&#45;&gt;dynamodb -->
<g id="edge21" class="edge">
<title>ce_node_1&#45;&gt;dynamodb</title>
<path fill="none" stroke="black" d="M856.77,-283.69C851.87,-282.82 846.64,-281.62 841,-280 741.94,-251.57 652.33,-161.79 613.04,-117.79"/>
<polygon fill="black" stroke="black" points="856.61,-287.21 867,-285.13 857.58,-280.27 856.61,-287.21"/>
<polygon fill="black" stroke="black" points="615.53,-115.32 606.29,-110.13 610.27,-119.95 615.53,-115.32"/>
</g>
<!-- ce_node_3 -->
<g id="node10" class="node">
<title>ce_node_3</title>
<defs>
<linearGradient id="l_19" gradientUnits="userSpaceOnUse" x1="883" y1="-316" x2="937" y2="-316" >
<stop offset="0" style="stop-color:#dddddd;stop-opacity:1.;"/>
<stop offset="1" style="stop-color:#aaaaaa;stop-opacity:1.;"/>
</linearGradient>
</defs>
<polygon fill="url(#l_19)" stroke="#dddddd" points="937,-334 883,-334 883,-298 937,-298 937,-334"/>
<text text-anchor="middle" x="910" y="-312.3" font-family="Times,serif" font-size="14.00">EC2</text>
</g>
<!-- staging_node_1&#45;&gt;admin -->
<g id="edge24" class="edge">
<title>staging_node_1&#45;&gt;admin</title>
<path fill="none" stroke="black" d="M683.59,-287.75C687.79,-285.14 691.98,-282.53 696,-280 722.4,-263.39 729.4,-259.81 755,-242 765.69,-234.56 777.13,-226.14 787.34,-218.44"/>
<polygon fill="black" stroke="black" points="681.67,-284.82 675,-293.06 685.35,-290.78 681.67,-284.82"/>
<polygon fill="black" stroke="black" points="789.74,-221.02 795.59,-212.19 785.51,-215.44 789.74,-221.02"/>
</g>
<!-- staging_node_1&#45;&gt;efs -->
<g id="edge25" class="edge">
<title>staging_node_1&#45;&gt;efs</title>
<path fill="none" stroke="black" d="M666,-282.06C702.69,-237.31 767.48,-158.28 800.46,-118.05"/>
<polygon fill="black" stroke="black" points="663.13,-280.05 659.49,-290 668.54,-284.49 663.13,-280.05"/>
<polygon fill="black" stroke="black" points="803.34,-120.06 806.97,-110.11 797.93,-115.62 803.34,-120.06"/>
</g>
<!-- staging_node_1&#45;&gt;s3 -->
<g id="edge26" class="edge">
<title>staging_node_1&#45;&gt;s3</title>
<path fill="none" stroke="black" d="M598.18,-282.58C597.43,-281.73 596.7,-280.87 596,-280 532.62,-201.84 457.3,-139.45 525,-65 554.85,-32.17 862.85,-22.22 970.84,-19.73"/>
<polygon fill="black" stroke="black" points="595.9,-285.26 605.38,-290 600.93,-280.39 595.9,-285.26"/>
<polygon fill="black" stroke="black" points="971.02,-23.22 980.94,-19.5 970.86,-16.23 971.02,-23.22"/>
</g>
<!-- staging_node_1&#45;&gt;dynamodb -->
<g id="edge27" class="edge">
<title>staging_node_1&#45;&gt;dynamodb</title>
<path fill="none" stroke="black" d="M623.78,-289.23C616.5,-275.64 608.44,-258.43 604,-242 592.85,-200.72 591.08,-150.85 591.24,-120.56"/>
<polygon fill="black" stroke="black" points="614.87,-285.88 624.63,-290 619.56,-280.69 614.87,-285.88"/>
<polygon fill="black" stroke="black" points="594.74,-120.37 591.37,-110.33 587.74,-120.28 594.74,-120.37"/>
</g>
<!-- gh_actions&#45;&gt;sqs -->
<g id="edge1" class="edge">
<title>gh_actions&#45;&gt;sqs</title>
<path fill="none" stroke="black" d="M329.68,-413.56C321.54,-392.7 310.25,-363.77 302.15,-343.02"/>
<polygon fill="black" stroke="black" points="326.43,-414.85 333.33,-422.9 332.95,-412.31 326.43,-414.85"/>
<polygon fill="black" stroke="black" points="305.36,-341.61 298.46,-333.56 298.84,-344.15 305.36,-341.61"/>
</g>
<!-- lambda_stats&#45;&gt;dynamodb -->
<g id="edge10" class="edge">
<title>lambda_stats&#45;&gt;dynamodb</title>
<path fill="none" stroke="black" d="M469.27,-413.2C494.06,-348.53 556.93,-184.49 581.72,-119.81"/>
<polygon fill="black" stroke="black" points="471.86,-405.3 467.6,-415 476.98,-410.07 471.86,-405.3"/>
<polygon fill="black" stroke="black" points="585.05,-120.9 585.36,-110.31 578.52,-118.4 585.05,-120.9"/>
</g>
<!-- action_runner_2 -->
<g id="node16" class="node">
<title>action_runner_2</title>
<defs>
<linearGradient id="l_20" gradientUnits="userSpaceOnUse" x1="240.5" y1="-92" x2="309.5" y2="-92" >
<stop offset="0" style="stop-color:#dddddd;stop-opacity:1.;"/>
<stop offset="1" style="stop-color:#aaaaaa;stop-opacity:1.;"/>
</linearGradient>
</defs>
<polygon fill="url(#l_20)" stroke="#dddddd" points="309.5,-111 240.5,-111 240.5,-73 309.5,-73 309.5,-111"/>
<text text-anchor="middle" x="275" y="-95.8" font-family="Times,serif" font-size="14.00">Runner</text>
<text text-anchor="middle" x="275" y="-80.8" font-family="Times,serif" font-size="14.00">EC2</text>
</g>
<!-- action_runner_1&#45;&gt;s3 -->
<g id="edge11" class="edge">
<title>action_runner_1&#45;&gt;s3</title>
<path fill="none" stroke="black" d="M228.88,-62.49C274.59,-51.58 291.37,-57.65 343,-54 581.91,-37.12 869.65,-24.64 970.72,-20.49"/>
<polygon fill="black" stroke="black" points="227.83,-59.15 219,-65 229.55,-65.93 227.83,-59.15"/>
<polygon fill="black" stroke="black" points="970.89,-23.99 980.74,-20.08 970.61,-16.99 970.89,-23.99"/>
</g>
<!-- action_runner_3 -->
<g id="node18" class="node">
<title>action_runner_3</title>
<defs>
<linearGradient id="l_21" gradientUnits="userSpaceOnUse" x1="16.5" y1="-92" x2="85.5" y2="-92" >
<stop offset="0" style="stop-color:#dddddd;stop-opacity:1.;"/>
<stop offset="1" style="stop-color:#aaaaaa;stop-opacity:1.;"/>
</linearGradient>
</defs>
<polygon fill="url(#l_21)" stroke="#dddddd" points="85.5,-111 16.5,-111 16.5,-73 85.5,-73 85.5,-111"/>
<text text-anchor="middle" x="51" y="-95.8" font-family="Times,serif" font-size="14.00">Runner</text>
<text text-anchor="middle" x="51" y="-80.8" font-family="Times,serif" font-size="14.00">EC2</text>
</g>
<!-- admin&#45;&gt;efs -->
<g id="edge14" class="edge">
<title>admin&#45;&gt;efs</title>
<path fill="none" stroke="black" d="M819.57,-163.71C819.85,-150.04 820.18,-133.71 820.45,-120.19"/>
<polygon fill="black" stroke="black" points="816.07,-163.77 819.37,-173.84 823.07,-163.91 816.07,-163.77"/>
<polygon fill="black" stroke="black" points="823.95,-120.12 820.66,-110.05 816.95,-119.98 823.95,-120.12"/>
</g>
<!-- admin&#45;&gt;s3 -->
<g id="edge15" class="edge">
<title>admin&#45;&gt;s3</title>
<path fill="none" stroke="black" d="M846.7,-166.65C882.96,-133.45 946.08,-75.67 981.66,-43.11"/>
<polygon fill="black" stroke="black" points="843.88,-164.48 838.87,-173.81 848.61,-169.64 843.88,-164.48"/>
<polygon fill="black" stroke="black" points="984.22,-45.51 989.24,-36.17 979.5,-40.34 984.22,-45.51"/>
</g>
<!-- admin&#45;&gt;dynamodb -->
<g id="edge16" class="edge">
<title>admin&#45;&gt;dynamodb</title>
<path fill="none" stroke="black" d="M778.96,-174.54C739.72,-157.42 679.94,-131.35 638.58,-113.32"/>
<polygon fill="black" stroke="black" points="777.82,-177.86 788.39,-178.65 780.62,-171.44 777.82,-177.86"/>
<polygon fill="black" stroke="black" points="639.84,-110.05 629.28,-109.26 637.04,-116.46 639.84,-110.05"/>
</g>
<!-- build -->
<g id="node23" class="node">
<title>build</title>
<defs>
<linearGradient id="l_22" gradientUnits="userSpaceOnUse" x1="1029" y1="-92" x2="1153" y2="-92" >
<stop offset="0" style="stop-color:#ddddff;stop-opacity:1.;"/>
<stop offset="1" style="stop-color:#aaaacc;stop-opacity:1.;"/>
</linearGradient>
</defs>
<polygon fill="url(#l_22)" stroke="#ddddff" points="1153,-111 1029,-111 1029,-73 1153,-73 1153,-111"/>
<text text-anchor="middle" x="1091" y="-95.8" font-family="Times,serif" font-size="14.00">Legacy Builder</text>
<text text-anchor="middle" x="1091" y="-80.8" font-family="Times,serif" font-size="14.00">EC2</text>
</g>
<!-- admin&#45;&gt;build -->
<g id="edge12" class="edge">
<title>admin&#45;&gt;build</title>
<path fill="none" stroke="black" d="M859.65,-181.91C887.09,-175.19 924.16,-166.29 957,-159 974.27,-155.16 979.54,-157.48 996,-151 1018.1,-142.3 1040.87,-128.58 1058.58,-116.68"/>
<polygon fill="black" stroke="black" points="858.5,-178.59 849.63,-184.37 860.17,-185.39 858.5,-178.59"/>
<polygon fill="black" stroke="black" points="1060.58,-119.55 1066.84,-111.01 1056.61,-113.78 1060.58,-119.55"/>
</g>
<!-- build&#45;&gt;s3 -->
<g id="edge13" class="edge">
<title>build&#45;&gt;s3</title>
<path fill="none" stroke="black" d="M1062.43,-66.22C1053.69,-58.64 1044.1,-50.32 1035.44,-42.8"/>
<polygon fill="black" stroke="black" points="1060.21,-68.92 1070.06,-72.83 1064.8,-63.63 1060.21,-68.92"/>
<polygon fill="black" stroke="black" points="1037.64,-40.08 1027.79,-36.17 1033.06,-45.37 1037.64,-40.08"/>
</g>
</g>
</svg>
