<?xml version="1.0" encoding="UTF-8" standalone="no"?>
<!DOCTYPE svg PUBLIC "-//W3C//DTD SVG 1.1//EN"
 "http://www.w3.org/Graphics/SVG/1.1/DTD/svg11.dtd">
<!-- Generated by graphviz version 2.43.20190912.0211 (20190912.0211)
 -->
<!-- Title: compiler_explorer Pages: 1 -->
<svg width="1751pt" height="680pt"
 viewBox="0.00 0.00 1751.00 680.00" xmlns="http://www.w3.org/2000/svg" xmlns:xlink="http://www.w3.org/1999/xlink">
<g id="graph0" class="graph" transform="scale(1 1) rotate(0) translate(4 676)">
<title>compiler_explorer</title>
<polygon fill="white" stroke="transparent" points="-4,4 -4,-676 1747,-676 1747,4 -4,4"/>
<g id="clust1" class="cluster">
<title>cluster_ce_nodes_ms</title>
<polygon fill="#db99dd" stroke="#db99dd" points="539,-169 539,-244 803,-244 803,-169 539,-169"/>
<text text-anchor="middle" x="671" y="-228.8" font-family="Times,serif" font-size="14.00">www.godbolt.ms</text>
</g>
<g id="clust2" class="cluster">
<title>cluster_ce_nodes</title>
<polygon fill="#99dd99" stroke="#99dd99" points="250,-161 250,-399 530,-399 530,-161 250,-161"/>
<text text-anchor="middle" x="390" y="-383.8" font-family="Times,serif" font-size="14.00">Production</text>
</g>
<g id="clust3" class="cluster">
<title>cluster_ce_nodes_linux</title>
<polygon fill="#ad99dd" stroke="#ad99dd" points="258,-293 258,-368 522,-368 522,-293 258,-293"/>
<text text-anchor="middle" x="390" y="-352.8" font-family="Times,serif" font-size="14.00">Linux</text>
</g>
<g id="clust4" class="cluster">
<title>cluster_ce_nodes_win</title>
<polygon fill="#cd99dd" stroke="#cd99dd" points="258,-169 258,-244 339,-244 339,-169 258,-169"/>
<text text-anchor="middle" x="298.5" y="-228.8" font-family="Times,serif" font-size="14.00">Windows</text>
</g>
<g id="clust5" class="cluster">
<title>cluster_ce_nodes_gpu</title>
<polygon fill="#74c974" stroke="#74c974" points="355,-169 355,-244 425,-244 425,-169 355,-169"/>
<text text-anchor="middle" x="390" y="-228.8" font-family="Times,serif" font-size="14.00">GPU</text>
</g>
<g id="clust6" class="cluster">
<title>cluster_staging_nodes</title>
<polygon fill="#99dddd" stroke="#99dddd" points="1079,-293 1079,-368 1151,-368 1151,-293 1079,-293"/>
<text text-anchor="middle" x="1115" y="-352.8" font-family="Times,serif" font-size="14.00">Staging</text>
</g>
<g id="clust7" class="cluster">
<title>cluster_lambda</title>
<polygon fill="#44aa88" stroke="#44aa88" points="1278,-418 1278,-493 1488,-493 1488,-418 1278,-418"/>
<text text-anchor="middle" x="1383" y="-477.8" font-family="Times,serif" font-size="14.00">Lambda</text>
</g>
<g id="clust8" class="cluster">
<title>cluster_gh_actions</title>
<polygon fill="#7799ee" stroke="#7799ee" points="1277,-67 1277,-144 1587,-144 1587,-67 1277,-67"/>
<text text-anchor="middle" x="1432" y="-128.8" font-family="Times,serif" font-size="14.00">Actions Runners</text>
</g>
<!-- outside -->
<g id="node1" class="node">
<title>outside</title>
<defs>
<linearGradient id="l_0" gradientUnits="userSpaceOnUse" x1="1315.49" y1="-654" x2="1446.51" y2="-654" >
<stop offset="0" style="stop-color:#dddddd;stop-opacity:1.;"/>
<stop offset="1" style="stop-color:#aaaaaa;stop-opacity:1.;"/>
</linearGradient>
</defs>
<polygon fill="url(#l_0)" stroke="#dddddd" points="1446.51,-672 1342.3,-672 1315.49,-636 1419.7,-636 1446.51,-672"/>
<text text-anchor="middle" x="1381" y="-650.3" font-family="Times,serif" font-size="14.00">outside</text>
</g>
<!-- cloudfront -->
<g id="node2" class="node">
<title>cloudfront</title>
<defs>
<linearGradient id="l_1" gradientUnits="userSpaceOnUse" x1="1322.51" y1="-567" x2="1439.49" y2="-567" >
<stop offset="0" style="stop-color:#dddddd;stop-opacity:1.;"/>
<stop offset="1" style="stop-color:#aaaaaa;stop-opacity:1.;"/>
</linearGradient>
</defs>
<ellipse fill="url(#l_1)" stroke="#dddddd" cx="1381" cy="-567" rx="58.49" ry="18"/>
<text text-anchor="middle" x="1381" y="-563.3" font-family="Times,serif" font-size="14.00">cloudfront</text>
</g>
<!-- outside&#45;&gt;cloudfront -->
<g id="edge3" class="edge">
<title>outside&#45;&gt;cloudfront</title>
<path fill="none" stroke="black" d="M1381,-625.73C1381,-616.06 1381,-605.17 1381,-595.48"/>
<polygon fill="black" stroke="black" points="1377.5,-625.8 1381,-635.8 1384.5,-625.8 1377.5,-625.8"/>
<polygon fill="black" stroke="black" points="1384.5,-595.18 1381,-585.18 1377.5,-595.18 1384.5,-595.18"/>
<text text-anchor="middle" x="1400" y="-606.8" font-family="Times,serif" font-size="14.00">https</text>
</g>
<!-- alb -->
<g id="node4" class="node">
<title>alb</title>
<defs>
<linearGradient id="l_2" gradientUnits="userSpaceOnUse" x1="1013.5" y1="-444" x2="1216.5" y2="-444" >
<stop offset="0" style="stop-color:#dddddd;stop-opacity:1.;"/>
<stop offset="1" style="stop-color:#aaaaaa;stop-opacity:1.;"/>
</linearGradient>
</defs>
<polygon fill="url(#l_2)" stroke="#dddddd" points="1216.5,-462 1013.5,-462 1013.5,-426 1216.5,-426 1216.5,-462"/>
<text text-anchor="middle" x="1115" y="-440.3" font-family="Times,serif" font-size="14.00">Application Load Balancer</text>
</g>
<!-- cloudfront&#45;&gt;alb -->
<g id="edge4" class="edge">
<title>cloudfront&#45;&gt;alb</title>
<path fill="none" stroke="black" d="M1314.24,-561.53C1259.68,-556.74 1187.8,-547.51 1164,-531 1143.68,-516.91 1130.72,-491.48 1123.27,-471.92"/>
<polygon fill="black" stroke="black" points="1313.96,-565.02 1324.22,-562.37 1314.55,-558.04 1313.96,-565.02"/>
<polygon fill="black" stroke="black" points="1126.5,-470.57 1119.86,-462.31 1119.91,-472.91 1126.5,-470.57"/>
<text text-anchor="middle" x="1244" y="-519.8" font-family="Times,serif" font-size="14.00">dynamic content</text>
<text text-anchor="middle" x="1244" y="-504.8" font-family="Times,serif" font-size="14.00">compiler&#45;explorer.com</text>
</g>
<!-- gh_actions -->
<g id="node14" class="node">
<title>gh_actions</title>
<defs>
<linearGradient id="l_3" gradientUnits="userSpaceOnUse" x1="1383.5" y1="-444" x2="1480.5" y2="-444" >
<stop offset="0" style="stop-color:#dddddd;stop-opacity:1.;"/>
<stop offset="1" style="stop-color:#aaaaaa;stop-opacity:1.;"/>
</linearGradient>
</defs>
<polygon fill="url(#l_3)" stroke="#dddddd" points="1480.5,-462 1383.5,-462 1383.5,-426 1480.5,-426 1480.5,-462"/>
<text text-anchor="middle" x="1432" y="-440.3" font-family="Times,serif" font-size="14.00">GH Actions</text>
</g>
<!-- cloudfront&#45;&gt;gh_actions -->
<g id="edge7" class="edge">
<title>cloudfront&#45;&gt;gh_actions</title>
<path fill="none" stroke="black" d="M1392.14,-539.57C1400.63,-519.43 1412.27,-491.82 1420.77,-471.63"/>
<polygon fill="black" stroke="black" points="1388.86,-538.35 1388.2,-548.92 1395.31,-541.06 1388.86,-538.35"/>
<polygon fill="black" stroke="black" points="1424.01,-472.96 1424.67,-462.38 1417.56,-470.24 1424.01,-472.96"/>
<text text-anchor="middle" x="1448.5" y="-512.3" font-family="Times,serif" font-size="14.00">github.com</text>
</g>
<!-- lambda_stats -->
<g id="node15" class="node">
<title>lambda_stats</title>
<defs>
<linearGradient id="l_4" gradientUnits="userSpaceOnUse" x1="1286" y1="-444" x2="1340" y2="-444" >
<stop offset="0" style="stop-color:#dddddd;stop-opacity:1.;"/>
<stop offset="1" style="stop-color:#aaaaaa;stop-opacity:1.;"/>
</linearGradient>
</defs>
<polygon fill="url(#l_4)" stroke="#dddddd" points="1340,-462 1286,-462 1286,-426 1340,-426 1340,-462"/>
<text text-anchor="middle" x="1313" y="-440.3" font-family="Times,serif" font-size="14.00">Stats</text>
</g>
<!-- cloudfront&#45;&gt;lambda_stats -->
<g id="edge6" class="edge">
<title>cloudfront&#45;&gt;lambda_stats</title>
<path fill="none" stroke="black" d="M1357.77,-541.71C1354.97,-538.24 1352.3,-534.62 1350,-531 1338.2,-512.42 1328.53,-489.43 1322.04,-471.9"/>
<polygon fill="black" stroke="black" points="1355.22,-544.11 1364.38,-549.43 1360.53,-539.56 1355.22,-544.11"/>
<polygon fill="black" stroke="black" points="1325.26,-470.51 1318.59,-462.28 1318.67,-472.87 1325.26,-470.51"/>
<text text-anchor="middle" x="1368" y="-512.3" font-family="Times,serif" font-size="14.00">stats</text>
</g>
<!-- s3 -->
<g id="node21" class="node">
<title>s3</title>
<defs>
<linearGradient id="l_5" gradientUnits="userSpaceOnUse" x1="1079" y1="-21" x2="1133" y2="-21" >
<stop offset="0" style="stop-color:#dddddd;stop-opacity:1.;"/>
<stop offset="1" style="stop-color:#aaaaaa;stop-opacity:1.;"/>
</linearGradient>
</defs>
<polygon fill="url(#l_5)" stroke="#dddddd" points="1133,-37 1130,-41 1109,-41 1106,-37 1079,-37 1079,-1 1133,-1 1133,-37"/>
<text text-anchor="middle" x="1106" y="-15.3" font-family="Times,serif" font-size="14.00">s3</text>
</g>
<!-- cloudfront&#45;&gt;s3 -->
<g id="edge5" class="edge">
<title>cloudfront&#45;&gt;s3</title>
<path fill="none" stroke="black" d="M1449.29,-563.21C1527.21,-555.94 1644,-530.74 1644,-445 1644,-445 1644,-445 1644,-93 1644,-42.39 1265.35,-25.32 1143.37,-21.13"/>
<polygon fill="black" stroke="black" points="1448.71,-559.75 1439.04,-564.09 1449.3,-566.72 1448.71,-559.75"/>
<polygon fill="black" stroke="black" points="1143.16,-17.62 1133.05,-20.79 1142.93,-24.62 1143.16,-17.62"/>
<text text-anchor="middle" x="1693.5" y="-270.8" font-family="Times,serif" font-size="14.00">static content</text>
<text text-anchor="middle" x="1693.5" y="-255.8" font-family="Times,serif" font-size="14.00">ce&#45;cdn.net</text>
</g>
<!-- sqs -->
<g id="node3" class="node">
<title>sqs</title>
<defs>
<linearGradient id="l_6" gradientUnits="userSpaceOnUse" x1="1405" y1="-319" x2="1459" y2="-319" >
<stop offset="0" style="stop-color:#dddddd;stop-opacity:1.;"/>
<stop offset="1" style="stop-color:#aaaaaa;stop-opacity:1.;"/>
</linearGradient>
</defs>
<ellipse fill="url(#l_6)" stroke="#dddddd" cx="1432" cy="-319" rx="27" ry="18"/>
<text text-anchor="middle" x="1432" y="-315.3" font-family="Times,serif" font-size="14.00">sqs</text>
</g>
<!-- action_runner_1 -->
<g id="node17" class="node">
<title>action_runner_1</title>
<defs>
<linearGradient id="l_7" gradientUnits="userSpaceOnUse" x1="1397.5" y1="-94" x2="1466.5" y2="-94" >
<stop offset="0" style="stop-color:#dddddd;stop-opacity:1.;"/>
<stop offset="1" style="stop-color:#aaaaaa;stop-opacity:1.;"/>
</linearGradient>
</defs>
<polygon fill="url(#l_7)" stroke="#dddddd" points="1466.5,-113 1397.5,-113 1397.5,-75 1466.5,-75 1466.5,-113"/>
<text text-anchor="middle" x="1432" y="-97.8" font-family="Times,serif" font-size="14.00">Runner</text>
<text text-anchor="middle" x="1432" y="-82.8" font-family="Times,serif" font-size="14.00">EC2</text>
</g>
<!-- sqs&#45;&gt;action_runner_1 -->
<g id="edge2" class="edge">
<title>sqs&#45;&gt;action_runner_1</title>
<path fill="none" stroke="black" d="M1432,-290.71C1432,-256.89 1432,-198.34 1432,-154.06"/>
<polygon fill="black" stroke="black" points="1428.5,-290.87 1432,-300.87 1435.5,-290.87 1428.5,-290.87"/>
<polygon fill="black" stroke="black" points="1435.5,-154 1432,-144 1428.5,-154 1435.5,-154"/>
</g>
<!-- ce_node_1 -->
<g id="node9" class="node">
<title>ce_node_1</title>
<defs>
<linearGradient id="l_8" gradientUnits="userSpaceOnUse" x1="363" y1="-319" x2="417" y2="-319" >
<stop offset="0" style="stop-color:#dddddd;stop-opacity:1.;"/>
<stop offset="1" style="stop-color:#aaaaaa;stop-opacity:1.;"/>
</linearGradient>
</defs>
<polygon fill="url(#l_8)" stroke="#dddddd" points="417,-337 363,-337 363,-301 417,-301 417,-337"/>
<text text-anchor="middle" x="390" y="-315.3" font-family="Times,serif" font-size="14.00">EC2</text>
</g>
<!-- alb&#45;&gt;ce_node_1 -->
<g id="edge8" class="edge">
<title>alb&#45;&gt;ce_node_1</title>
<path fill="none" stroke="black" d="M1003.42,-441.34C832.74,-438.01 519,-428.53 447.36,-403.2"/>
<polygon fill="black" stroke="black" points="1003.38,-444.84 1013.45,-441.53 1003.51,-437.84 1003.38,-444.84"/>
<polygon fill="black" stroke="black" points="448.56,-399.9 438,-399 445.69,-406.29 448.56,-399.9"/>
</g>
<!-- staging_node_1 -->
<g id="node13" class="node">
<title>staging_node_1</title>
<defs>
<linearGradient id="l_9" gradientUnits="userSpaceOnUse" x1="1088" y1="-319" x2="1142" y2="-319" >
<stop offset="0" style="stop-color:#dddddd;stop-opacity:1.;"/>
<stop offset="1" style="stop-color:#aaaaaa;stop-opacity:1.;"/>
</linearGradient>
</defs>
<polygon fill="url(#l_9)" stroke="#dddddd" points="1142,-337 1088,-337 1088,-301 1142,-301 1142,-337"/>
<text text-anchor="middle" x="1115" y="-315.3" font-family="Times,serif" font-size="14.00">EC2</text>
</g>
<!-- alb&#45;&gt;staging_node_1 -->
<g id="edge9" class="edge">
<title>alb&#45;&gt;staging_node_1</title>
<path fill="none" stroke="black" d="M1115,-415.7C1115,-404.64 1115,-391.41 1115,-378.37"/>
<polygon fill="black" stroke="black" points="1111.5,-415.9 1115,-425.9 1118.5,-415.9 1111.5,-415.9"/>
<polygon fill="black" stroke="black" points="1118.5,-378 1115,-368 1111.5,-378 1118.5,-378"/>
</g>
<!-- ms_node_2 -->
<g id="node5" class="node">
<title>ms_node_2</title>
<defs>
<linearGradient id="l_10" gradientUnits="userSpaceOnUse" x1="741" y1="-195" x2="795" y2="-195" >
<stop offset="0" style="stop-color:#dddddd;stop-opacity:1.;"/>
<stop offset="1" style="stop-color:#aaaaaa;stop-opacity:1.;"/>
</linearGradient>
</defs>
<polygon fill="url(#l_10)" stroke="#dddddd" points="795,-213 741,-213 741,-177 795,-177 795,-213"/>
<text text-anchor="middle" x="768" y="-191.3" font-family="Times,serif" font-size="14.00">k8s</text>
</g>
<!-- ms_node_1 -->
<g id="node6" class="node">
<title>ms_node_1</title>
<defs>
<linearGradient id="l_11" gradientUnits="userSpaceOnUse" x1="644" y1="-195" x2="698" y2="-195" >
<stop offset="0" style="stop-color:#dddddd;stop-opacity:1.;"/>
<stop offset="1" style="stop-color:#aaaaaa;stop-opacity:1.;"/>
</linearGradient>
</defs>
<polygon fill="url(#l_11)" stroke="#dddddd" points="698,-213 644,-213 644,-177 698,-177 698,-213"/>
<text text-anchor="middle" x="671" y="-191.3" font-family="Times,serif" font-size="14.00">k8s</text>
</g>
<!-- ms_node_3 -->
<g id="node7" class="node">
<title>ms_node_3</title>
<defs>
<linearGradient id="l_12" gradientUnits="userSpaceOnUse" x1="547" y1="-195" x2="601" y2="-195" >
<stop offset="0" style="stop-color:#dddddd;stop-opacity:1.;"/>
<stop offset="1" style="stop-color:#aaaaaa;stop-opacity:1.;"/>
</linearGradient>
</defs>
<polygon fill="url(#l_12)" stroke="#dddddd" points="601,-213 547,-213 547,-177 601,-177 601,-213"/>
<text text-anchor="middle" x="574" y="-191.3" font-family="Times,serif" font-size="14.00">k8s</text>
</g>
<!-- ce_node_2 -->
<g id="node8" class="node">
<title>ce_node_2</title>
<defs>
<linearGradient id="l_13" gradientUnits="userSpaceOnUse" x1="460" y1="-319" x2="514" y2="-319" >
<stop offset="0" style="stop-color:#dddddd;stop-opacity:1.;"/>
<stop offset="1" style="stop-color:#aaaaaa;stop-opacity:1.;"/>
</linearGradient>
</defs>
<polygon fill="url(#l_13)" stroke="#dddddd" points="514,-337 460,-337 460,-301 514,-301 514,-337"/>
<text text-anchor="middle" x="487" y="-315.3" font-family="Times,serif" font-size="14.00">EC2</text>
</g>
<!-- ce_node_1&#45;&gt;ms_node_1 -->
<g id="edge24" class="edge">
<title>ce_node_1&#45;&gt;ms_node_1</title>
<path fill="none" stroke="black" d="M539.97,-275.99C567.95,-269.76 584.35,-266.19 613.28,-249.27"/>
<polygon fill="black" stroke="black" points="538.99,-272.62 530,-278.22 540.52,-279.45 538.99,-272.62"/>
<polygon fill="black" stroke="black" points="615.25,-252.17 622,-244 611.63,-246.18 615.25,-252.17"/>
</g>
<!-- ce_node_1_win -->
<g id="node11" class="node">
<title>ce_node_1_win</title>
<defs>
<linearGradient id="l_14" gradientUnits="userSpaceOnUse" x1="266" y1="-195" x2="320" y2="-195" >
<stop offset="0" style="stop-color:#dddddd;stop-opacity:1.;"/>
<stop offset="1" style="stop-color:#aaaaaa;stop-opacity:1.;"/>
</linearGradient>
</defs>
<polygon fill="url(#l_14)" stroke="#dddddd" points="320,-213 266,-213 266,-177 320,-177 320,-213"/>
<text text-anchor="middle" x="293" y="-191.3" font-family="Times,serif" font-size="14.00">EC2</text>
</g>
<!-- ce_node_1&#45;&gt;ce_node_1_win -->
<g id="edge26" class="edge">
<title>ce_node_1&#45;&gt;ce_node_1_win</title>
<path fill="none" stroke="black" d="M370.02,-292.87C360.56,-280.97 348.85,-266.25 337.45,-251.91"/>
<polygon fill="black" stroke="black" points="359.76,-292 370.31,-293 362.69,-285.64 359.76,-292"/>
<polygon fill="black" stroke="black" points="340.13,-249.65 331.16,-244 334.65,-254 340.13,-249.65"/>
</g>
<!-- ce_node_1_gpu -->
<g id="node12" class="node">
<title>ce_node_1_gpu</title>
<defs>
<linearGradient id="l_15" gradientUnits="userSpaceOnUse" x1="363" y1="-195" x2="417" y2="-195" >
<stop offset="0" style="stop-color:#dddddd;stop-opacity:1.;"/>
<stop offset="1" style="stop-color:#aaaaaa;stop-opacity:1.;"/>
</linearGradient>
</defs>
<polygon fill="url(#l_15)" stroke="#dddddd" points="417,-213 363,-213 363,-177 417,-177 417,-213"/>
<text text-anchor="middle" x="390" y="-191.3" font-family="Times,serif" font-size="14.00">EC2</text>
</g>
<!-- ce_node_1&#45;&gt;ce_node_1_gpu -->
<g id="edge27" class="edge">
<title>ce_node_1&#45;&gt;ce_node_1_gpu</title>
<path fill="none" stroke="black" d="M390,-290.65C390,-279.8 390,-266.89 390,-254.14"/>
<polygon fill="black" stroke="black" points="386.5,-283 390,-293 393.5,-283 386.5,-283"/>
<polygon fill="black" stroke="black" points="393.5,-254 390,-244 386.5,-254 393.5,-254"/>
</g>
<!-- admin -->
<g id="node19" class="node">
<title>admin</title>
<defs>
<linearGradient id="l_16" gradientUnits="userSpaceOnUse" x1="925.5" y1="-195" x2="986.5" y2="-195" >
<stop offset="0" style="stop-color:#ddddff;stop-opacity:1.;"/>
<stop offset="1" style="stop-color:#aaaacc;stop-opacity:1.;"/>
</linearGradient>
</defs>
<polygon fill="url(#l_16)" stroke="#ddddff" points="986.5,-214 925.5,-214 925.5,-176 986.5,-176 986.5,-214"/>
<text text-anchor="middle" x="956" y="-198.8" font-family="Times,serif" font-size="14.00">admin</text>
<text text-anchor="middle" x="956" y="-183.8" font-family="Times,serif" font-size="14.00">EC2</text>
</g>
<!-- ce_node_1&#45;&gt;admin -->
<g id="edge21" class="edge">
<title>ce_node_1&#45;&gt;admin</title>
<path fill="none" stroke="black" d="M540.02,-284.46C554.87,-284.82 571.56,-284.61 593,-282 691.5,-270.03 716.8,-268.3 813,-244 848.32,-235.08 887.47,-221.68 915.87,-211.3"/>
<polygon fill="black" stroke="black" points="540.1,-280.96 530,-284.14 539.88,-287.96 540.1,-280.96"/>
<polygon fill="black" stroke="black" points="917.27,-214.52 925.44,-207.77 914.85,-207.95 917.27,-214.52"/>
</g>
<!-- efs -->
<g id="node20" class="node">
<title>efs</title>
<defs>
<linearGradient id="l_17" gradientUnits="userSpaceOnUse" x1="579" y1="-96" x2="633" y2="-96" >
<stop offset="0" style="stop-color:#dddddd;stop-opacity:1.;"/>
<stop offset="1" style="stop-color:#aaaaaa;stop-opacity:1.;"/>
</linearGradient>
</defs>
<polygon fill="url(#l_17)" stroke="#dddddd" points="633,-112 630,-116 609,-116 606,-112 579,-112 579,-76 633,-76 633,-112"/>
<text text-anchor="middle" x="606" y="-90.3" font-family="Times,serif" font-size="14.00">efs</text>
</g>
<!-- ce_node_1&#45;&gt;efs -->
<g id="edge22" class="edge">
<title>ce_node_1&#45;&gt;efs</title>
<path fill="none" stroke="black" d="M536.23,-154.03C549.53,-141.47 564.16,-128.89 576.58,-118.6"/>
<polygon fill="black" stroke="black" points="533.77,-151.54 529,-161 538.63,-156.58 533.77,-151.54"/>
<polygon fill="black" stroke="black" points="578.89,-121.23 584.39,-112.17 574.44,-115.82 578.89,-121.23"/>
</g>
<!-- ce_node_1&#45;&gt;s3 -->
<g id="edge23" class="edge">
<title>ce_node_1&#45;&gt;s3</title>
<path fill="none" stroke="black" d="M244.76,-236.68C228.56,-208.47 228.01,-187.98 248,-161 347.51,-26.72 916.82,-19.24 1068.74,-19.67"/>
<polygon fill="black" stroke="black" points="241.8,-238.56 250,-245.27 247.78,-234.91 241.8,-238.56"/>
<polygon fill="black" stroke="black" points="1068.93,-23.17 1078.95,-19.72 1068.96,-16.17 1068.93,-23.17"/>
</g>
<!-- dynamodb -->
<g id="node22" class="node">
<title>dynamodb</title>
<defs>
<linearGradient id="l_18" gradientUnits="userSpaceOnUse" x1="1060.5" y1="-94" x2="1151.5" y2="-94" >
<stop offset="0" style="stop-color:#dddddd;stop-opacity:1.;"/>
<stop offset="1" style="stop-color:#aaaaaa;stop-opacity:1.;"/>
</linearGradient>
</defs>
<path fill="url(#l_18)" stroke="#dddddd" d="M1151.5,-108.73C1151.5,-110.53 1131.11,-112 1106,-112 1080.89,-112 1060.5,-110.53 1060.5,-108.73 1060.5,-108.73 1060.5,-79.27 1060.5,-79.27 1060.5,-77.47 1080.89,-76 1106,-76 1131.11,-76 1151.5,-77.47 1151.5,-79.27 1151.5,-79.27 1151.5,-108.73 1151.5,-108.73"/>
<path fill="none" stroke="#dddddd" d="M1151.5,-108.73C1151.5,-106.92 1131.11,-105.45 1106,-105.45 1080.89,-105.45 1060.5,-106.92 1060.5,-108.73"/>
<text text-anchor="middle" x="1106" y="-90.3" font-family="Times,serif" font-size="14.00">dynamodb</text>
</g>
<!-- ce_node_1&#45;&gt;dynamodb -->
<g id="edge25" class="edge">
<title>ce_node_1&#45;&gt;dynamodb</title>
<path fill="none" stroke="black" d="M540.37,-283.82C605.53,-282.64 679.14,-285.21 717,-282 846.96,-270.98 897.45,-313.22 1008,-244 1053.86,-215.29 1082.77,-156.34 1096.51,-121.82"/>
<polygon fill="black" stroke="black" points="539.92,-280.33 530,-284.04 540.07,-287.33 539.92,-280.33"/>
<polygon fill="black" stroke="black" points="1099.82,-122.96 1100.13,-112.37 1093.29,-120.45 1099.82,-122.96"/>
</g>
<!-- conan -->
<g id="node24" class="node">
<title>conan</title>
<defs>
<linearGradient id="l_19" gradientUnits="userSpaceOnUse" x1="383" y1="-19" x2="445" y2="-19" >
<stop offset="0" style="stop-color:#ddddff;stop-opacity:1.;"/>
<stop offset="1" style="stop-color:#aaaacc;stop-opacity:1.;"/>
</linearGradient>
</defs>
<polygon fill="url(#l_19)" stroke="#ddddff" points="445,-38 383,-38 383,0 445,0 445,-38"/>
<text text-anchor="middle" x="414" y="-22.8" font-family="Times,serif" font-size="14.00">Conan</text>
<text text-anchor="middle" x="414" y="-7.8" font-family="Times,serif" font-size="14.00">EC2</text>
</g>
<!-- ce_node_1&#45;&gt;conan -->
<g id="edge14" class="edge">
<title>ce_node_1&#45;&gt;conan</title>
<path fill="none" stroke="black" d="M239.91,-291.08C176.55,-291.65 105.44,-291.79 93,-282 31.61,-233.69 -29.63,-180.39 82,-56 101.12,-34.69 288.36,-24.84 372.92,-21.44"/>
<polygon fill="black" stroke="black" points="240.03,-294.58 250,-290.98 239.97,-287.58 240.03,-294.58"/>
<polygon fill="black" stroke="black" points="373.09,-24.94 382.95,-21.05 372.82,-17.94 373.09,-24.94"/>
</g>
<!-- ce_node_3 -->
<g id="node10" class="node">
<title>ce_node_3</title>
<defs>
<linearGradient id="l_20" gradientUnits="userSpaceOnUse" x1="266" y1="-319" x2="320" y2="-319" >
<stop offset="0" style="stop-color:#dddddd;stop-opacity:1.;"/>
<stop offset="1" style="stop-color:#aaaaaa;stop-opacity:1.;"/>
</linearGradient>
</defs>
<polygon fill="url(#l_20)" stroke="#dddddd" points="320,-337 266,-337 266,-301 320,-301 320,-337"/>
<text text-anchor="middle" x="293" y="-315.3" font-family="Times,serif" font-size="14.00">EC2</text>
</g>
<!-- staging_node_1&#45;&gt;admin -->
<g id="edge28" class="edge">
<title>staging_node_1&#45;&gt;admin</title>
<path fill="none" stroke="black" d="M1074.36,-286.81C1047.5,-266.2 1012.79,-239.57 987.92,-220.49"/>
<polygon fill="black" stroke="black" points="1072.36,-289.69 1082.42,-293 1076.62,-284.14 1072.36,-289.69"/>
<polygon fill="black" stroke="black" points="989.69,-217.44 979.62,-214.13 985.43,-222.99 989.69,-217.44"/>
</g>
<!-- staging_node_1&#45;&gt;efs -->
<g id="edge29" class="edge">
<title>staging_node_1&#45;&gt;efs</title>
<path fill="none" stroke="black" d="M1077.94,-309.82C1034.2,-299.1 960.31,-277.63 904,-244 857,-215.93 860.39,-188.39 813,-161 758.24,-129.35 686.41,-110.85 643.36,-101.85"/>
<polygon fill="black" stroke="black" points="1068.4,-310.21 1079,-310.19 1070.71,-303.59 1068.4,-310.21"/>
<polygon fill="black" stroke="black" points="643.83,-98.37 633.33,-99.81 642.43,-105.23 643.83,-98.37"/>
</g>
<!-- staging_node_1&#45;&gt;s3 -->
<g id="edge30" class="edge">
<title>staging_node_1&#45;&gt;s3</title>
<path fill="none" stroke="black" d="M1145.7,-284.48C1146.16,-283.66 1146.59,-282.83 1147,-282 1189.42,-195.6 1217.41,-152.4 1173,-67 1166.25,-54.02 1154.08,-43.87 1141.95,-36.38"/>
<polygon fill="black" stroke="black" points="1142.68,-282.72 1140.14,-293 1148.54,-286.54 1142.68,-282.72"/>
<polygon fill="black" stroke="black" points="1143.63,-33.31 1133.21,-31.4 1140.16,-39.39 1143.63,-33.31"/>
</g>
<!-- staging_node_1&#45;&gt;dynamodb -->
<g id="edge31" class="edge">
<title>staging_node_1&#45;&gt;dynamodb</title>
<path fill="none" stroke="black" d="M1115.6,-290.3C1116.09,-257.31 1116.27,-200.57 1113,-152 1112.34,-142.24 1111.16,-131.59 1109.96,-122.17"/>
<polygon fill="black" stroke="black" points="1112.58,-282.79 1115.42,-293 1119.56,-283.25 1112.58,-282.79"/>
<polygon fill="black" stroke="black" points="1113.41,-121.61 1108.61,-112.16 1106.47,-122.54 1113.41,-121.61"/>
</g>
<!-- gh_actions&#45;&gt;sqs -->
<g id="edge1" class="edge">
<title>gh_actions&#45;&gt;sqs</title>
<path fill="none" stroke="black" d="M1432,-415.7C1432,-395.42 1432,-367.87 1432,-347.53"/>
<polygon fill="black" stroke="black" points="1428.5,-415.9 1432,-425.9 1435.5,-415.9 1428.5,-415.9"/>
<polygon fill="black" stroke="black" points="1435.5,-347.35 1432,-337.35 1428.5,-347.35 1435.5,-347.35"/>
</g>
<!-- lambda_stats&#45;&gt;dynamodb -->
<g id="edge10" class="edge">
<title>lambda_stats&#45;&gt;dynamodb</title>
<path fill="none" stroke="black" d="M1298.79,-416.86C1270.63,-365.42 1205.27,-247.74 1145,-152 1138.45,-141.59 1130.88,-130.37 1124.17,-120.66"/>
<polygon fill="black" stroke="black" points="1290.94,-411.9 1299.6,-418 1296.64,-407.83 1290.94,-411.9"/>
<polygon fill="black" stroke="black" points="1126.89,-118.44 1118.3,-112.23 1121.14,-122.44 1126.89,-118.44"/>
</g>
<!-- action_runner_2 -->
<g id="node16" class="node">
<title>action_runner_2</title>
<defs>
<linearGradient id="l_21" gradientUnits="userSpaceOnUse" x1="1509.5" y1="-94" x2="1578.5" y2="-94" >
<stop offset="0" style="stop-color:#dddddd;stop-opacity:1.;"/>
<stop offset="1" style="stop-color:#aaaaaa;stop-opacity:1.;"/>
</linearGradient>
</defs>
<polygon fill="url(#l_21)" stroke="#dddddd" points="1578.5,-113 1509.5,-113 1509.5,-75 1578.5,-75 1578.5,-113"/>
<text text-anchor="middle" x="1544" y="-97.8" font-family="Times,serif" font-size="14.00">Runner</text>
<text text-anchor="middle" x="1544" y="-82.8" font-family="Times,serif" font-size="14.00">EC2</text>
</g>
<!-- action_runner_1&#45;&gt;s3 -->
<g id="edge11" class="edge">
<title>action_runner_1&#45;&gt;s3</title>
<path fill="none" stroke="black" d="M1365.98,-63.95C1287.26,-40.68 1194.32,-28.66 1143.63,-23.4"/>
<polygon fill="black" stroke="black" points="1365.41,-67.44 1376,-67 1367.45,-60.74 1365.41,-67.44"/>
<polygon fill="black" stroke="black" points="1143.68,-19.89 1133.38,-22.37 1142.98,-26.86 1143.68,-19.89"/>
</g>
<!-- action_runner_3 -->
<g id="node18" class="node">
<title>action_runner_3</title>
<defs>
<linearGradient id="l_22" gradientUnits="userSpaceOnUse" x1="1285.5" y1="-94" x2="1354.5" y2="-94" >
<stop offset="0" style="stop-color:#dddddd;stop-opacity:1.;"/>
<stop offset="1" style="stop-color:#aaaaaa;stop-opacity:1.;"/>
</linearGradient>
</defs>
<polygon fill="url(#l_22)" stroke="#dddddd" points="1354.5,-113 1285.5,-113 1285.5,-75 1354.5,-75 1354.5,-113"/>
<text text-anchor="middle" x="1320" y="-97.8" font-family="Times,serif" font-size="14.00">Runner</text>
<text text-anchor="middle" x="1320" y="-82.8" font-family="Times,serif" font-size="14.00">EC2</text>
</g>
<!-- admin&#45;&gt;efs -->
<g id="edge18" class="edge">
<title>admin&#45;&gt;efs</title>
<path fill="none" stroke="black" d="M916.31,-172.62C908.34,-168.59 899.97,-164.53 892,-161 881.59,-156.38 879.11,-154.54 868,-152 829.72,-143.25 818.62,-151.13 780,-144 731.83,-135.11 677.71,-118.84 642.81,-107.5"/>
<polygon fill="black" stroke="black" points="914.94,-175.85 925.43,-177.31 918.14,-169.63 914.94,-175.85"/>
<polygon fill="black" stroke="black" points="643.65,-104.09 633.06,-104.3 641.47,-110.74 643.65,-104.09"/>
</g>
<!-- admin&#45;&gt;s3 -->
<g id="edge19" class="edge">
<title>admin&#45;&gt;s3</title>
<path fill="none" stroke="black" d="M969.86,-166.66C984.56,-139.39 1009.67,-97.31 1039,-67 1048.2,-57.49 1059.57,-48.68 1070.32,-41.32"/>
<polygon fill="black" stroke="black" points="966.69,-165.16 965.11,-175.64 972.88,-168.44 966.69,-165.16"/>
<polygon fill="black" stroke="black" points="1072.34,-44.18 1078.75,-35.74 1068.48,-38.34 1072.34,-44.18"/>
</g>
<!-- admin&#45;&gt;dynamodb -->
<g id="edge20" class="edge">
<title>admin&#45;&gt;dynamodb</title>
<path fill="none" stroke="black" d="M991.98,-170.25C1016.19,-154.27 1047.93,-133.33 1071.77,-117.59"/>
<polygon fill="black" stroke="black" points="989.93,-167.41 983.51,-175.84 993.79,-173.25 989.93,-167.41"/>
<polygon fill="black" stroke="black" points="1073.75,-120.48 1080.17,-112.05 1069.89,-114.64 1073.75,-120.48"/>
</g>
<!-- build -->
<g id="node23" class="node">
<title>build</title>
<defs>
<linearGradient id="l_23" gradientUnits="userSpaceOnUse" x1="801" y1="-94" x2="927" y2="-94" >
<stop offset="0" style="stop-color:#ddddff;stop-opacity:1.;"/>
<stop offset="1" style="stop-color:#aaaacc;stop-opacity:1.;"/>
</linearGradient>
</defs>
<polygon fill="url(#l_23)" stroke="#ddddff" points="927,-113 801,-113 801,-75 927,-75 927,-113"/>
<text text-anchor="middle" x="864" y="-97.8" font-family="Times,serif" font-size="14.00">Library Builder</text>
<text text-anchor="middle" x="864" y="-82.8" font-family="Times,serif" font-size="14.00">EC2</text>
</g>
<!-- admin&#45;&gt;build -->
<g id="edge12" class="edge">
<title>admin&#45;&gt;build</title>
<path fill="none" stroke="black" d="M931.92,-168.06C926.98,-162.74 921.82,-157.19 917,-152 907.49,-141.77 897.02,-130.51 887.92,-120.71"/>
<polygon fill="black" stroke="black" points="929.55,-170.65 938.92,-175.6 934.68,-165.89 929.55,-170.65"/>
<polygon fill="black" stroke="black" points="890.32,-118.16 880.95,-113.22 885.2,-122.93 890.32,-118.16"/>
</g>
<!-- build&#45;&gt;s3 -->
<g id="edge13" class="edge">
<title>build&#45;&gt;s3</title>
<path fill="none" stroke="black" d="M916.96,-71.22C930.84,-65.89 945.88,-60.44 960,-56 996.53,-44.51 1039.14,-34.36 1068.86,-27.8"/>
<polygon fill="black" stroke="black" points="915.61,-67.99 907.56,-74.88 918.15,-74.51 915.61,-67.99"/>
<polygon fill="black" stroke="black" points="1069.78,-31.18 1078.81,-25.63 1068.29,-24.34 1069.78,-31.18"/>
</g>
<!-- build&#45;&gt;conan -->
<g id="edge15" class="edge">
<title>build&#45;&gt;conan</title>
<path fill="none" stroke="black" d="M790.93,-81.15C695.46,-65.66 531.49,-39.06 455.23,-26.69"/>
<polygon fill="black" stroke="black" points="790.52,-84.63 800.96,-82.77 791.65,-77.72 790.52,-84.63"/>
<polygon fill="black" stroke="black" points="455.5,-23.19 445.07,-25.04 454.38,-30.1 455.5,-23.19"/>
</g>
<!-- winsmb -->
<g id="node25" class="node">
<title>winsmb</title>
<defs>
<linearGradient id="l_24" gradientUnits="userSpaceOnUse" x1="0" y1="-319" x2="54" y2="-319" >
<stop offset="0" style="stop-color:#ddddff;stop-opacity:1.;"/>
<stop offset="1" style="stop-color:#aaaacc;stop-opacity:1.;"/>
</linearGradient>
</defs>
<polygon fill="url(#l_24)" stroke="#ddddff" points="54,-338 0,-338 0,-300 54,-300 54,-338"/>
<text text-anchor="middle" x="27" y="-322.8" font-family="Times,serif" font-size="14.00">SMB</text>
<text text-anchor="middle" x="27" y="-307.8" font-family="Times,serif" font-size="14.00">EC2</text>
</g>
<!-- winsmb&#45;&gt;ce_node_1_win -->
<g id="edge16" class="edge">
<title>winsmb&#45;&gt;ce_node_1_win</title>
<path fill="none" stroke="black" d="M64.13,-308.66C106.64,-297.08 177.54,-275.01 233,-244 245.04,-237.27 257.13,-228.15 267.28,-219.67"/>
<polygon fill="black" stroke="black" points="62.98,-305.35 54.22,-311.31 64.79,-312.11 62.98,-305.35"/>
<polygon fill="black" stroke="black" points="269.67,-222.23 274.96,-213.06 265.1,-216.93 269.67,-222.23"/>
</g>
<!-- winsmb&#45;&gt;efs -->
<g id="edge17" class="edge">
<title>winsmb&#45;&gt;efs</title>
<path fill="none" stroke="black" d="M54.04,-292.71C93.46,-257.34 170.5,-193.77 248,-161 358.51,-114.28 501.99,-100.56 568.77,-96.58"/>
<polygon fill="black" stroke="black" points="51.27,-290.5 46.21,-299.81 55.97,-295.68 51.27,-290.5"/>
<polygon fill="black" stroke="black" points="569.02,-100.08 578.82,-96.03 568.64,-93.09 569.02,-100.08"/>
</g>
</g>
</svg>
